<svg width="27" height="27" viewBox="0 0 27 27" fill="none" xmlns="http://www.w3.org/2000/svg">
<g clip-path="url(#clip0_10128_409)">
<path d="M13.4304 24.5038C13.6492 24.5051 13.8661 24.4628 14.0684 24.3794C14.2707 24.296 14.4544 24.1732 14.6088 24.0181L17.8345 20.7924C18.0457 20.5804 18.1648 20.2937 18.166 19.9944L18.1673 7.09865C18.1668 6.65812 17.9916 6.23576 17.6801 5.92426C17.3686 5.61276 16.9463 5.43756 16.5057 5.43711L10.3655 5.43711C9.92483 5.43752 9.50232 5.61277 9.19071 5.92437C8.8791 6.23598 8.70386 6.65849 8.70345 7.09917L8.70214 19.9897C8.70272 20.289 8.82145 20.576 9.0325 20.7882L12.2601 24.0158C12.413 24.1706 12.5953 24.2936 12.7962 24.3773C12.9971 24.4611 13.2127 24.5041 13.4304 24.5038ZM12.5959 19.3135C12.762 19.1474 12.9736 19.0343 13.204 18.9885C13.4343 18.9427 13.6731 18.9662 13.8901 19.0561C14.107 19.146 14.2925 19.2982 14.423 19.4935C14.5535 19.6887 14.6231 19.9183 14.6231 20.1532C14.6231 20.3881 14.5535 20.6176 14.423 20.8129C14.2925 21.0082 14.107 21.1604 13.8901 21.2503C13.6731 21.3402 13.4343 21.3637 13.204 21.3179C12.9736 21.2721 12.762 21.159 12.5959 20.9929C12.3732 20.7702 12.2481 20.4681 12.2481 20.1532C12.2481 19.8382 12.3732 19.5362 12.5959 19.3135Z" fill="white"/>
<ellipse cx="13.3568" cy="20.1532" rx="1.35449" ry="1.31738" transform="rotate(135 13.3568 20.1532)" fill="white"/>
</g>
<defs>
<clipPath id="clip0_10128_409">
<rect width="19" height="19" fill="white" transform="translate(26.8711 13.4355) rotate(135)"/>
</clipPath>
</defs>
</svg>
